<svg width="300" height="300" viewBox="0 0 300 300" fill="none" xmlns="http://www.w3.org/2000/svg">
<path d="M96 59.3844C96 52.3845 101.4 47 108.42 47H191.58C198.6 47 204 52.3845 204 59.3844V89.5378C204 96.5377 209.4 101.922 216.42 101.922H245.58C252.6 101.922 258 107.307 258 114.307V144.46C258 151.46 252.6 156.844 245.58 156.844H216.42C209.4 156.844 204 151.46 204 144.46V114.307C204 107.307 198.6 101.922 191.58 101.922H108.42C101.4 101.922 96 107.307 96 114.307L96 184.693C96 191.693 101.4 197.078 108.42 197.078L155.18 197.078C182.143 197.078 204 218.935 204 245.898V245.898C204 249.268 201.268 252 197.897 252L108.42 252C101.4 252 96 246.615 96 239.615V209.462C96 202.462 90.6 197.078 83.58 197.078H54.42C47.4 197.078 42 191.693 42 184.693V114.307C42 107.307 47.4 101.922 54.42 101.922H83.58C90.6 101.922 96 96.5377 96 89.5378V59.3844Z" fill="#5D4BFF"/>
</svg>
